<svg width="13" height="13" viewBox="0 0 13 13" fill="none" xmlns="http://www.w3.org/2000/svg">
<path d="M2.14733 10.2489C2.26004 10.3682 2.37775 10.4819 2.4996 10.592C3.56385 11.5532 4.96337 12.1429 6.49996 12.1429C8.03656 12.1429 9.43608 11.5527 10.5003 10.592C10.6222 10.4819 10.74 10.3681 10.8526 10.2489C10.9648 10.1295 11.0743 10.0074 11.1773 9.87928C12.0111 8.83676 12.5133 7.51293 12.5133 6.07154C12.5133 2.72347 9.81541 6.51361e-09 6.49988 6.51361e-09C3.18435 6.51361e-09 0.486603 2.7239 0.486603 6.07146C0.486603 7.51285 0.988794 8.83676 1.82262 9.87919C1.92519 10.0074 2.03461 10.1291 2.14733 10.2489Z" fill="url(#paint0_linear)"/>
<defs>
<linearGradient id="paint0_linear" x1="18.2599" y1="5.53287e-07" x2="-3.92666" y2="11.393" gradientUnits="userSpaceOnUse">
<stop stop-color="#282696" stop-opacity="0.96"/>
<stop offset="1" stop-color="#09ABE4"/>
</linearGradient>
</defs>
</svg>
