<svg width="209" height="52" viewBox="0 0 209 52" fill="none" xmlns="http://www.w3.org/2000/svg">
<path fill-rule="evenodd" clip-rule="evenodd" d="M148.305 8.22368V21.2632H158.456V8.22368C158.417 4.5921 155.169 3.22368 153.374 3.18421C151.46 3.18421 148.305 4.76316 148.305 8.22368ZM153.374 0C157.928 0 161.624 3.76316 161.624 8.25V21.2632L164.832 24.4211H141.89L145.124 21.2632L145.137 8.18421C145.137 3.61842 148.886 0 153.374 0Z" fill="#09ABE4"/>
<path fill-rule="evenodd" clip-rule="evenodd" d="M90.2767 24.4209L93.3127 3.35506C93.5767 1.43401 94.4216 0.460327 95.8208 0.460327C97.0484 0.460327 97.8932 1.2498 98.3552 2.82875L103.675 19.6972L108.942 2.82875C109.404 1.2498 110.249 0.460327 111.49 0.460327C112.889 0.460327 113.72 1.43401 113.984 3.35506L117.02 24.4209H113.984L111.292 4.93401L105.84 22.3156C105.325 23.9209 104.599 24.7235 103.675 24.7235C103.147 24.7235 102.711 24.5393 102.381 24.1577C102.051 23.7893 101.748 23.1709 101.457 22.3156L96.0188 4.93401L93.3523 24.4209H90.2767Z" fill="#09ABE4"/>
<path fill-rule="evenodd" clip-rule="evenodd" d="M159.129 51.4342V30.8421H152.476V27.5921H168.99V30.8421H162.363V51.4342H159.129Z" fill="#282696"/>
<path fill-rule="evenodd" clip-rule="evenodd" d="M193.688 34.1185C197.74 30.6712 200.697 25.8685 201.793 20.5001H209C206.558 26.8028 202.228 32.1843 196.711 35.9475C202.228 39.7238 206.558 45.1054 209 51.408H201.793C200.697 46.0396 197.74 41.2238 193.688 37.7896C193.516 37.6317 193.49 37.5791 193.371 37.5133V34.3817C193.371 34.3554 193.608 34.1975 193.688 34.1185Z" fill="#282696"/>
<path fill-rule="evenodd" clip-rule="evenodd" d="M136.689 35.1448V48.1843V51.3422H133.495L133.508 48.1843L133.521 35.1053C133.534 30.5395 137.27 26.9211 141.771 26.9211C146.312 26.9211 150.008 30.6843 150.008 35.1711V48.1843L150.034 51.3422H146.827V48.1843H146.84V35.1448C146.814 31.5132 143.566 30.1316 141.771 30.1053C139.857 30.1053 136.689 31.6843 136.689 35.1448Z" fill="#282696"/>
<path fill-rule="evenodd" clip-rule="evenodd" d="M176.184 43.7499C176.184 38.342 176.184 32.9473 176.184 27.5394H173.016V43.7894C173.016 48.3552 176.752 51.9605 181.253 51.9605C183.154 51.9605 184.909 51.3026 186.309 50.2105V51.3289H189.516V27.5262H186.309V44.2499C185.992 47.4999 182.969 48.7499 181.253 48.7894C179.339 48.7894 176.184 47.2105 176.184 43.7499Z" fill="#282696"/>
<path fill-rule="evenodd" clip-rule="evenodd" d="M167.089 12.5C167.089 15.0526 168.026 17.2763 169.901 19.1974C171.788 21.1184 174.046 22.0789 176.699 22.0789C179.352 22.0789 181.609 21.1184 183.484 19.1974C185.345 17.2763 186.269 15.0526 186.269 12.5C186.269 9.97368 185.345 7.75 183.484 5.82895C181.609 3.90789 179.352 2.94737 176.699 2.94737C174.072 2.94737 171.815 3.89474 169.927 5.80263C168.04 7.69737 167.089 9.92105 167.089 12.5ZM186.309 0.552632H189.516V24.3553H186.309V20.5658C186.084 20.8289 185.847 21.0921 185.583 21.3553C183.128 23.8553 180.171 25.0921 176.699 25.0921C173.307 25.0921 170.35 23.8684 167.842 21.3947C165.347 18.9211 164.093 15.9737 164.093 12.5263C164.093 9.15789 165.347 6.23684 167.842 3.73684C170.35 1.25 173.307 0 176.699 0C180.171 0 183.128 1.23684 185.583 3.71053C185.847 3.96053 186.084 4.22368 186.309 4.5V0.552632Z" fill="#09ABE4"/>
<path fill-rule="evenodd" clip-rule="evenodd" d="M107.793 39.3947C107.793 41.9474 108.731 44.1842 110.605 46.1053C112.48 48.0132 114.737 48.9737 117.403 48.9737C120.057 48.9737 122.314 48.0132 124.175 46.1053C126.036 44.1842 126.973 41.9474 126.973 39.3947C126.973 36.8684 126.036 34.6447 124.175 32.7368C122.314 30.8158 120.057 29.8553 117.403 29.8553C114.763 29.8553 112.506 30.8026 110.618 32.6974C108.731 34.5921 107.793 36.8289 107.793 39.3947ZM120.717 12.5C120.717 15.0526 121.654 17.2763 123.528 19.1974C125.403 21.1184 127.673 22.0789 130.326 22.0789C132.98 22.0789 135.237 21.1184 137.098 19.1974C138.959 17.2763 139.897 15.0526 139.897 12.5C139.897 9.97368 138.959 7.75 137.098 5.82895C135.237 3.90789 132.98 2.94737 130.326 2.94737C127.686 2.94737 125.429 3.89474 123.541 5.80263C121.654 7.69737 120.717 9.92105 120.717 12.5ZM124.611 23.7237C124.479 23.6974 124.347 23.6842 124.201 23.6842C122.855 23.6842 121.746 24.7895 121.746 26.1316C121.746 26.8947 122.103 27.5658 122.644 28.0132C123.964 28.6316 125.178 29.4868 126.287 30.6053C128.742 33.0789 129.97 36.0132 129.97 39.4342C129.97 42.8289 128.742 45.7632 126.287 48.2632C123.832 50.75 120.862 52 117.39 52C113.998 52 111.041 50.7632 108.546 48.2895C106.038 45.8158 104.784 42.8684 104.784 39.4342C104.784 36.0658 106.038 33.1316 108.546 30.6447C111.041 28.1447 113.998 26.8947 117.39 26.8947C117.918 26.8947 118.433 26.9342 118.935 26.9868C118.882 26.7105 118.855 26.4211 118.855 26.1316C118.855 24.1447 119.951 22.4079 121.575 21.5C121.535 21.4605 121.509 21.4211 121.469 21.3947C118.961 18.9211 117.72 15.9737 117.72 12.5263C117.72 9.1579 118.961 6.23684 121.469 3.73684C123.977 1.25 126.921 0 130.326 0C133.785 0 136.755 1.23684 139.21 3.71053C141.665 6.17105 142.893 9.11842 142.893 12.5263C142.893 15.9211 141.665 18.8684 139.21 21.3553C136.755 23.8553 133.785 25.0921 130.326 25.0921C128.254 25.0921 126.353 24.6447 124.611 23.7237Z" fill="#282696"/>
<path fill-rule="evenodd" clip-rule="evenodd" d="M51.4943 1.02643C61.7113 1.02643 70.5423 7.09222 74.5684 15.8027C68.1002 13.1317 61.0777 11.5396 53.7251 11.2501C52.9991 11.1448 52.2467 11.0922 51.4943 11.0922C50.7683 11.0922 50.0687 11.1448 49.3822 11.237C42.0165 11.4738 34.9807 13.0133 28.4862 15.6449C32.5519 7.02643 41.3433 1.02643 51.4943 1.02643Z" fill="#09ABE4"/>
<path fill-rule="evenodd" clip-rule="evenodd" d="M76.7068 22.9998C76.72 23.013 76.72 23.013 76.72 23.0261C88.4023 29.0788 97.6821 39.1577 102.672 51.3946H90.8179C88.7587 42.4998 83.6634 34.5788 76.7992 28.9867C75.466 41.6972 64.6286 51.6577 51.5471 51.6577C38.3864 51.6577 27.5094 41.5919 26.2686 28.7893C19.2724 34.3946 13.9395 42.3946 11.8538 51.3946H0C5.04251 39.013 14.5731 28.8025 26.4402 22.7761C26.4402 22.7893 26.4402 22.7893 26.4402 22.8025C30.2286 20.8814 34.2811 19.3814 38.5052 18.3814C37.0796 20.6972 36.248 23.434 36.248 26.3419C36.248 34.7498 43.1121 41.5919 51.5471 41.5919C59.9689 41.5919 66.8462 34.7498 66.8462 26.3419C66.8462 23.4604 66.0278 20.763 64.6286 18.4604C68.8658 19.513 72.9183 21.0393 76.7068 22.9998Z" fill="#282696"/>
</svg>
